<?xml version="1.0" encoding="utf-8" standalone="no"?>
<!DOCTYPE svg PUBLIC "-//W3C//DTD SVG 1.1//EN"
  "http://www.w3.org/Graphics/SVG/1.1/DTD/svg11.dtd">
<svg xmlns:xlink="http://www.w3.org/1999/xlink" width="125.893235pt" height="92.274719pt" viewBox="0 0 125.893235 92.274719" xmlns="http://www.w3.org/2000/svg" version="1.1">
 <metadata>
  <rdf:RDF xmlns:dc="http://purl.org/dc/elements/1.1/" xmlns:cc="http://creativecommons.org/ns#" xmlns:rdf="http://www.w3.org/1999/02/22-rdf-syntax-ns#">
   <cc:Work>
    <dc:type rdf:resource="http://purl.org/dc/dcmitype/StillImage"/>
    <dc:date>2026-07-21T00:21:39.603970</dc:date>
    <dc:format>image/svg+xml</dc:format>
    <dc:creator>
     <cc:Agent>
      <dc:title>Matplotlib v3.11.1, https://matplotlib.org/</dc:title>
     </cc:Agent>
    </dc:creator>
   </cc:Work>
  </rdf:RDF>
 </metadata>
 <defs>
  <style type="text/css">*{stroke-linejoin: round; stroke-linecap: butt}</style>
 </defs>
 <g id="figure_1">
  <g id="patch_1">
   <path d="M 0 92.274719 
L 125.893235 92.274719 
L 125.893235 0 
L 0 0 
z
" style="fill: #ffffff"/>
  </g>
  <g id="axes_1">
   <g id="line2d_1">
    <path d="M 47.308076 33.15824 
L 115.448455 33.15824 
" clip-path="url(#p4c0dd224f0)" style="fill: none; stroke: #000000; stroke-width: 1.4; stroke-linecap: square"/>
   </g>
   <g id="line2d_2">
    <path d="M 47.308076 65.606039 
L 115.448455 65.606039 
" clip-path="url(#p4c0dd224f0)" style="fill: none; stroke: #000000; stroke-width: 1.4; stroke-linecap: square"/>
   </g>
   <g id="patch_2">
    <path d="M 44.063296 16.93434 
L -767.131693 16.93434 
L -767.131693 114.277739 
L 44.063296 114.277739 
z
" clip-path="url(#p4c0dd224f0)" style="fill: #ffffff; stroke: #ffffff; stroke-width: 1.05; stroke-linejoin: miter"/>
   </g>
   <g id="line2d_3">
    <path d="M 64.829888 65.606039 
L 64.829888 33.15824 
" clip-path="url(#p4c0dd224f0)" style="fill: none; stroke: #002d9c; stroke-width: 1.4; stroke-linecap: square"/>
   </g>
   <g id="patch_3">
    <path d="M 64.829888 68.7697 
C 65.6689 68.7697 66.473662 68.436356 67.066934 67.843085 
C 67.660205 67.249814 67.993548 66.445052 67.993548 65.606039 
C 67.993548 64.767027 67.660205 63.962265 67.066934 63.368993 
C 66.473662 62.775722 65.6689 62.442379 64.829888 62.442379 
C 63.990875 62.442379 63.186114 62.775722 62.592842 63.368993 
C 61.999571 63.962265 61.666227 64.767027 61.666227 65.606039 
C 61.666227 66.445052 61.999571 67.249814 62.592842 67.843085 
C 63.186114 68.436356 63.990875 68.7697 64.829888 68.7697 
z
" clip-path="url(#p4c0dd224f0)" style="fill: #002d9c; stroke: #002d9c; stroke-width: 1.05; stroke-linejoin: miter"/>
   </g>
   <g id="patch_4">
    <path d="M 64.829888 40.540114 
C 66.787584 40.540114 68.665361 39.762313 70.049661 38.378013 
C 71.433961 36.993713 72.211762 35.115936 72.211762 33.15824 
C 72.211762 31.200544 71.433961 29.322766 70.049661 27.938466 
C 68.665361 26.554166 66.787584 25.776365 64.829888 25.776365 
C 62.872192 25.776365 60.994415 26.554166 59.610114 27.938466 
C 58.225814 29.322766 57.448013 31.200544 57.448013 33.15824 
C 57.448013 35.115936 58.225814 36.993713 59.610114 38.378013 
C 60.994415 39.762313 62.872192 40.540114 64.829888 40.540114 
z
" clip-path="url(#p4c0dd224f0)" style="fill: #002d9c; stroke: #002d9c; stroke-width: 1.4; stroke-linejoin: miter"/>
   </g>
   <g id="patch_5">
    <path d="M 86.732153 43.703775 
L 107.823222 43.703775 
L 107.823222 22.612705 
L 86.732153 22.612705 
z
" clip-path="url(#p4c0dd224f0)" style="fill: #002d9c; stroke: #002d9c; stroke-width: 1.05; stroke-linejoin: miter"/>
   </g>
   <g id="line2d_4">
    <path d="M 64.829888 37.376454 
L 64.829888 28.940026 
" clip-path="url(#p4c0dd224f0)" style="fill: none; stroke: #ffffff; stroke-width: 1.4; stroke-linecap: square"/>
   </g>
   <g id="line2d_5">
    <path d="M 60.611674 33.15824 
L 69.048102 33.15824 
" clip-path="url(#p4c0dd224f0)" style="fill: none; stroke: #ffffff; stroke-width: 1.4; stroke-linecap: square"/>
   </g>
   <g id="text_1">
    <g clip-path="url(#p4c0dd224f0)">
     <!-- ${q}_{0}$ -->
     <g transform="translate(28.192266 36.113074) scale(0.11375 -0.11375)">
      <defs>
       <path id="DejaVuSans-Oblique-54" d="M 2669 525 
Q 2438 222 2123 65 
Q 1809 -91 1428 -91 
Q 897 -91 595 267 
Q 294 625 294 1253 
Q 294 1759 480 2231 
Q 666 2703 1013 3078 
Q 1238 3322 1530 3453 
Q 1822 3584 2144 3584 
Q 2531 3584 2781 3431 
Q 3031 3278 3144 2969 
L 3244 3494 
L 3822 3494 
L 2888 -1319 
L 2309 -1319 
L 2669 525 
z
M 891 1338 
Q 891 875 1084 633 
Q 1278 391 1644 391 
Q 2188 391 2572 911 
Q 2956 1431 2956 2175 
Q 2956 2625 2757 2864 
Q 2559 3103 2188 3103 
Q 1916 3103 1684 2976 
Q 1453 2850 1281 2606 
Q 1100 2350 995 2006 
Q 891 1663 891 1338 
z
" transform="scale(0.015625)"/>
       <path id="DejaVuSans-13" d="M 2034 4250 
Q 1547 4250 1301 3770 
Q 1056 3291 1056 2328 
Q 1056 1369 1301 889 
Q 1547 409 2034 409 
Q 2525 409 2770 889 
Q 3016 1369 3016 2328 
Q 3016 3291 2770 3770 
Q 2525 4250 2034 4250 
z
M 2034 4750 
Q 2819 4750 3233 4129 
Q 3647 3509 3647 2328 
Q 3647 1150 3233 529 
Q 2819 -91 2034 -91 
Q 1250 -91 836 529 
Q 422 1150 422 2328 
Q 422 3509 836 4129 
Q 1250 4750 2034 4750 
z
" transform="scale(0.015625)"/>
      </defs>
      <use xlink:href="#DejaVuSans-Oblique-54"/>
      <use xlink:href="#DejaVuSans-13" transform="translate(63.476562 -14.999951) scale(0.7)"/>
     </g>
    </g>
   </g>
   <g id="text_2">
    <g clip-path="url(#p4c0dd224f0)">
     <!-- ${q}_{1}$ -->
     <g transform="translate(28.192266 68.560873) scale(0.11375 -0.11375)">
      <defs>
       <path id="DejaVuSans-14" d="M 794 531 
L 1825 531 
L 1825 4091 
L 703 3866 
L 703 4441 
L 1819 4666 
L 2450 4666 
L 2450 531 
L 3481 531 
L 3481 0 
L 794 0 
L 794 531 
z
" transform="scale(0.015625)"/>
      </defs>
      <use xlink:href="#DejaVuSans-Oblique-54"/>
      <use xlink:href="#DejaVuSans-14" transform="translate(63.476562 -14.999951) scale(0.7)"/>
     </g>
    </g>
   </g>
   <g id="text_3">
    <g clip-path="url(#p4c0dd224f0)">
     <!-- X -->
     <g style="fill: #ffffff" transform="translate(94.160937 35.522107) scale(0.091 -0.091)">
      <defs>
       <path id="DejaVuSans-3b" d="M 403 4666 
L 1081 4666 
L 2241 2931 
L 3406 4666 
L 4084 4666 
L 2584 2425 
L 4184 0 
L 3506 0 
L 2194 1984 
L 872 0 
L 191 0 
L 1856 2491 
L 403 4666 
z
" transform="scale(0.015625)"/>
      </defs>
      <use xlink:href="#DejaVuSans-3b"/>
     </g>
    </g>
   </g>
  </g>
 </g>
 <defs>
  <clipPath id="p4c0dd224f0">
   <rect x="7.2" y="7.2" width="111.493235" height="77.874719"/>
  </clipPath>
 </defs>
</svg>
