<?xml version="1.0" encoding="utf-8" standalone="no"?>
<!DOCTYPE svg PUBLIC "-//W3C//DTD SVG 1.1//EN"
  "http://www.w3.org/Graphics/SVG/1.1/DTD/svg11.dtd">
<svg xmlns:xlink="http://www.w3.org/1999/xlink" width="125.971597pt" height="286.961516pt" viewBox="0 0 125.971597 286.961516" xmlns="http://www.w3.org/2000/svg" version="1.1">
 <metadata>
  <rdf:RDF xmlns:dc="http://purl.org/dc/elements/1.1/" xmlns:cc="http://creativecommons.org/ns#" xmlns:rdf="http://www.w3.org/1999/02/22-rdf-syntax-ns#">
   <cc:Work>
    <dc:type rdf:resource="http://purl.org/dc/dcmitype/StillImage"/>
    <dc:date>2026-07-21T00:21:39.777115</dc:date>
    <dc:format>image/svg+xml</dc:format>
    <dc:creator>
     <cc:Agent>
      <dc:title>Matplotlib v3.11.1, https://matplotlib.org/</dc:title>
     </cc:Agent>
    </dc:creator>
   </cc:Work>
  </rdf:RDF>
 </metadata>
 <defs>
  <style type="text/css">*{stroke-linejoin: round; stroke-linecap: butt}</style>
 </defs>
 <g id="figure_1">
  <g id="patch_1">
   <path d="M 0 286.961516 
L 125.971597 286.961516 
L 125.971597 0 
L 0 0 
z
" style="fill: #ffffff"/>
  </g>
  <g id="axes_1">
   <g id="line2d_1">
    <path d="M 47.386438 33.15824 
L 115.526817 33.15824 
" clip-path="url(#p4aee7d10d8)" style="fill: none; stroke: #000000; stroke-width: 1.4; stroke-linecap: square"/>
   </g>
   <g id="line2d_2">
    <path d="M 47.386438 65.606039 
L 115.526817 65.606039 
" clip-path="url(#p4aee7d10d8)" style="fill: none; stroke: #000000; stroke-width: 1.4; stroke-linecap: square"/>
   </g>
   <g id="line2d_3">
    <path d="M 47.386438 98.053839 
L 115.526817 98.053839 
" clip-path="url(#p4aee7d10d8)" style="fill: none; stroke: #000000; stroke-width: 1.4; stroke-linecap: square"/>
   </g>
   <g id="line2d_4">
    <path d="M 47.386438 130.501638 
L 115.526817 130.501638 
" clip-path="url(#p4aee7d10d8)" style="fill: none; stroke: #000000; stroke-width: 1.4; stroke-linecap: square"/>
   </g>
   <g id="line2d_5">
    <path d="M 47.386438 162.949438 
L 115.526817 162.949438 
" clip-path="url(#p4aee7d10d8)" style="fill: none; stroke: #000000; stroke-width: 1.4; stroke-linecap: square"/>
   </g>
   <g id="line2d_6">
    <path d="M 47.386438 195.397237 
L 115.526817 195.397237 
" clip-path="url(#p4aee7d10d8)" style="fill: none; stroke: #000000; stroke-width: 1.4; stroke-linecap: square"/>
   </g>
   <g id="line2d_7">
    <path d="M 47.386438 227.845037 
L 115.526817 227.845037 
" clip-path="url(#p4aee7d10d8)" style="fill: none; stroke: #000000; stroke-width: 1.4; stroke-linecap: square"/>
   </g>
   <g id="line2d_8">
    <path d="M 47.386438 260.292837 
L 115.526817 260.292837 
" clip-path="url(#p4aee7d10d8)" style="fill: none; stroke: #000000; stroke-width: 1.4; stroke-linecap: square"/>
   </g>
   <g id="patch_2">
    <path d="M 44.141658 16.93434 
L -767.053332 16.93434 
L -767.053332 308.964536 
L 44.141658 308.964536 
z
" clip-path="url(#p4aee7d10d8)" style="fill: #ffffff; stroke: #ffffff; stroke-width: 1.05; stroke-linejoin: miter"/>
   </g>
   <g id="line2d_9">
    <path d="M 64.908249 65.606039 
L 64.908249 33.15824 
" clip-path="url(#p4aee7d10d8)" style="fill: none; stroke: #002d9c; stroke-width: 1.4; stroke-linecap: square"/>
   </g>
   <g id="line2d_10">
    <path d="M 64.908249 130.501638 
L 64.908249 98.053839 
" clip-path="url(#p4aee7d10d8)" style="fill: none; stroke: #002d9c; stroke-width: 1.4; stroke-linecap: square"/>
   </g>
   <g id="line2d_11">
    <path d="M 64.908249 195.397237 
L 64.908249 162.949438 
" clip-path="url(#p4aee7d10d8)" style="fill: none; stroke: #002d9c; stroke-width: 1.4; stroke-linecap: square"/>
   </g>
   <g id="line2d_12">
    <path d="M 64.908249 260.292837 
L 64.908249 227.845037 
" clip-path="url(#p4aee7d10d8)" style="fill: none; stroke: #002d9c; stroke-width: 1.4; stroke-linecap: square"/>
   </g>
   <g id="patch_3">
    <path d="M 64.908249 68.7697 
C 65.747262 68.7697 66.552024 68.436356 67.145295 67.843085 
C 67.738567 67.249814 68.07191 66.445052 68.07191 65.606039 
C 68.07191 64.767027 67.738567 63.962265 67.145295 63.368993 
C 66.552024 62.775722 65.747262 62.442379 64.908249 62.442379 
C 64.069237 62.442379 63.264475 62.775722 62.671204 63.368993 
C 62.077932 63.962265 61.744589 64.767027 61.744589 65.606039 
C 61.744589 66.445052 62.077932 67.249814 62.671204 67.843085 
C 63.264475 68.436356 64.069237 68.7697 64.908249 68.7697 
z
" clip-path="url(#p4aee7d10d8)" style="fill: #002d9c; stroke: #002d9c; stroke-width: 1.05; stroke-linejoin: miter"/>
   </g>
   <g id="patch_4">
    <path d="M 64.908249 40.540114 
C 66.865945 40.540114 68.743723 39.762313 70.128023 38.378013 
C 71.512323 36.993713 72.290124 35.115936 72.290124 33.15824 
C 72.290124 31.200544 71.512323 29.322766 70.128023 27.938466 
C 68.743723 26.554166 66.865945 25.776365 64.908249 25.776365 
C 62.950553 25.776365 61.072776 26.554166 59.688476 27.938466 
C 58.304176 29.322766 57.526375 31.200544 57.526375 33.15824 
C 57.526375 35.115936 58.304176 36.993713 59.688476 38.378013 
C 61.072776 39.762313 62.950553 40.540114 64.908249 40.540114 
z
" clip-path="url(#p4aee7d10d8)" style="fill: #002d9c; stroke: #002d9c; stroke-width: 1.4; stroke-linejoin: miter"/>
   </g>
   <g id="patch_5">
    <path d="M 64.908249 133.665299 
C 65.747262 133.665299 66.552024 133.331956 67.145295 132.738684 
C 67.738567 132.145413 68.07191 131.340651 68.07191 130.501638 
C 68.07191 129.662626 67.738567 128.857864 67.145295 128.264593 
C 66.552024 127.671321 65.747262 127.337978 64.908249 127.337978 
C 64.069237 127.337978 63.264475 127.671321 62.671204 128.264593 
C 62.077932 128.857864 61.744589 129.662626 61.744589 130.501638 
C 61.744589 131.340651 62.077932 132.145413 62.671204 132.738684 
C 63.264475 133.331956 64.069237 133.665299 64.908249 133.665299 
z
" clip-path="url(#p4aee7d10d8)" style="fill: #002d9c; stroke: #002d9c; stroke-width: 1.05; stroke-linejoin: miter"/>
   </g>
   <g id="patch_6">
    <path d="M 64.908249 105.435713 
C 66.865945 105.435713 68.743723 104.657912 70.128023 103.273612 
C 71.512323 101.889312 72.290124 100.011535 72.290124 98.053839 
C 72.290124 96.096143 71.512323 94.218365 70.128023 92.834065 
C 68.743723 91.449765 66.865945 90.671964 64.908249 90.671964 
C 62.950553 90.671964 61.072776 91.449765 59.688476 92.834065 
C 58.304176 94.218365 57.526375 96.096143 57.526375 98.053839 
C 57.526375 100.011535 58.304176 101.889312 59.688476 103.273612 
C 61.072776 104.657912 62.950553 105.435713 64.908249 105.435713 
z
" clip-path="url(#p4aee7d10d8)" style="fill: #002d9c; stroke: #002d9c; stroke-width: 1.4; stroke-linejoin: miter"/>
   </g>
   <g id="patch_7">
    <path d="M 64.908249 198.560898 
C 65.747262 198.560898 66.552024 198.227555 67.145295 197.634283 
C 67.738567 197.041012 68.07191 196.23625 68.07191 195.397237 
C 68.07191 194.558225 67.738567 193.753463 67.145295 193.160192 
C 66.552024 192.56692 65.747262 192.233577 64.908249 192.233577 
C 64.069237 192.233577 63.264475 192.56692 62.671204 193.160192 
C 62.077932 193.753463 61.744589 194.558225 61.744589 195.397237 
C 61.744589 196.23625 62.077932 197.041012 62.671204 197.634283 
C 63.264475 198.227555 64.069237 198.560898 64.908249 198.560898 
z
" clip-path="url(#p4aee7d10d8)" style="fill: #002d9c; stroke: #002d9c; stroke-width: 1.05; stroke-linejoin: miter"/>
   </g>
   <g id="patch_8">
    <path d="M 64.908249 170.331312 
C 66.865945 170.331312 68.743723 169.553511 70.128023 168.169211 
C 71.512323 166.784911 72.290124 164.907134 72.290124 162.949438 
C 72.290124 160.991742 71.512323 159.113965 70.128023 157.729664 
C 68.743723 156.345364 66.865945 155.567564 64.908249 155.567564 
C 62.950553 155.567564 61.072776 156.345364 59.688476 157.729664 
C 58.304176 159.113965 57.526375 160.991742 57.526375 162.949438 
C 57.526375 164.907134 58.304176 166.784911 59.688476 168.169211 
C 61.072776 169.553511 62.950553 170.331312 64.908249 170.331312 
z
" clip-path="url(#p4aee7d10d8)" style="fill: #002d9c; stroke: #002d9c; stroke-width: 1.4; stroke-linejoin: miter"/>
   </g>
   <g id="patch_9">
    <path d="M 64.908249 263.456497 
C 65.747262 263.456497 66.552024 263.123154 67.145295 262.529882 
C 67.738567 261.936611 68.07191 261.131849 68.07191 260.292837 
C 68.07191 259.453824 67.738567 258.649062 67.145295 258.055791 
C 66.552024 257.462519 65.747262 257.129176 64.908249 257.129176 
C 64.069237 257.129176 63.264475 257.462519 62.671204 258.055791 
C 62.077932 258.649062 61.744589 259.453824 61.744589 260.292837 
C 61.744589 261.131849 62.077932 261.936611 62.671204 262.529882 
C 63.264475 263.123154 64.069237 263.456497 64.908249 263.456497 
z
" clip-path="url(#p4aee7d10d8)" style="fill: #002d9c; stroke: #002d9c; stroke-width: 1.05; stroke-linejoin: miter"/>
   </g>
   <g id="patch_10">
    <path d="M 64.908249 235.226911 
C 66.865945 235.226911 68.743723 234.449111 70.128023 233.064811 
C 71.512323 231.68051 72.290124 229.802733 72.290124 227.845037 
C 72.290124 225.887341 71.512323 224.009564 70.128023 222.625264 
C 68.743723 221.240964 66.865945 220.463163 64.908249 220.463163 
C 62.950553 220.463163 61.072776 221.240964 59.688476 222.625264 
C 58.304176 224.009564 57.526375 225.887341 57.526375 227.845037 
C 57.526375 229.802733 58.304176 231.68051 59.688476 233.064811 
C 61.072776 234.449111 62.950553 235.226911 64.908249 235.226911 
z
" clip-path="url(#p4aee7d10d8)" style="fill: #002d9c; stroke: #002d9c; stroke-width: 1.4; stroke-linejoin: miter"/>
   </g>
   <g id="patch_11">
    <path d="M 86.810514 43.703775 
L 107.901584 43.703775 
L 107.901584 22.612705 
L 86.810514 22.612705 
z
" clip-path="url(#p4aee7d10d8)" style="fill: #002d9c; stroke: #002d9c; stroke-width: 1.05; stroke-linejoin: miter"/>
   </g>
   <g id="patch_12">
    <path d="M 86.810514 108.599374 
L 107.901584 108.599374 
L 107.901584 87.508304 
L 86.810514 87.508304 
z
" clip-path="url(#p4aee7d10d8)" style="fill: #002d9c; stroke: #002d9c; stroke-width: 1.05; stroke-linejoin: miter"/>
   </g>
   <g id="patch_13">
    <path d="M 86.810514 173.494973 
L 107.901584 173.494973 
L 107.901584 152.403903 
L 86.810514 152.403903 
z
" clip-path="url(#p4aee7d10d8)" style="fill: #002d9c; stroke: #002d9c; stroke-width: 1.05; stroke-linejoin: miter"/>
   </g>
   <g id="patch_14">
    <path d="M 86.810514 238.390572 
L 107.901584 238.390572 
L 107.901584 217.299502 
L 86.810514 217.299502 
z
" clip-path="url(#p4aee7d10d8)" style="fill: #002d9c; stroke: #002d9c; stroke-width: 1.05; stroke-linejoin: miter"/>
   </g>
   <g id="line2d_13">
    <path d="M 64.908249 37.376454 
L 64.908249 28.940026 
" clip-path="url(#p4aee7d10d8)" style="fill: none; stroke: #ffffff; stroke-width: 1.4; stroke-linecap: square"/>
   </g>
   <g id="line2d_14">
    <path d="M 60.690035 33.15824 
L 69.126463 33.15824 
" clip-path="url(#p4aee7d10d8)" style="fill: none; stroke: #ffffff; stroke-width: 1.4; stroke-linecap: square"/>
   </g>
   <g id="line2d_15">
    <path d="M 64.908249 102.272053 
L 64.908249 93.835625 
" clip-path="url(#p4aee7d10d8)" style="fill: none; stroke: #ffffff; stroke-width: 1.4; stroke-linecap: square"/>
   </g>
   <g id="line2d_16">
    <path d="M 60.690035 98.053839 
L 69.126463 98.053839 
" clip-path="url(#p4aee7d10d8)" style="fill: none; stroke: #ffffff; stroke-width: 1.4; stroke-linecap: square"/>
   </g>
   <g id="line2d_17">
    <path d="M 64.908249 167.167652 
L 64.908249 158.731224 
" clip-path="url(#p4aee7d10d8)" style="fill: none; stroke: #ffffff; stroke-width: 1.4; stroke-linecap: square"/>
   </g>
   <g id="line2d_18">
    <path d="M 60.690035 162.949438 
L 69.126463 162.949438 
" clip-path="url(#p4aee7d10d8)" style="fill: none; stroke: #ffffff; stroke-width: 1.4; stroke-linecap: square"/>
   </g>
   <g id="line2d_19">
    <path d="M 64.908249 232.063251 
L 64.908249 223.626823 
" clip-path="url(#p4aee7d10d8)" style="fill: none; stroke: #ffffff; stroke-width: 1.4; stroke-linecap: square"/>
   </g>
   <g id="line2d_20">
    <path d="M 60.690035 227.845037 
L 69.126463 227.845037 
" clip-path="url(#p4aee7d10d8)" style="fill: none; stroke: #ffffff; stroke-width: 1.4; stroke-linecap: square"/>
   </g>
   <g id="text_1">
    <g clip-path="url(#p4aee7d10d8)">
     <!-- ${q}_{0}$ -->
     <g transform="translate(28.270628 36.113074) scale(0.11375 -0.11375)">
      <defs>
       <path id="DejaVuSans-Oblique-54" d="M 2669 525 
Q 2438 222 2123 65 
Q 1809 -91 1428 -91 
Q 897 -91 595 267 
Q 294 625 294 1253 
Q 294 1759 480 2231 
Q 666 2703 1013 3078 
Q 1238 3322 1530 3453 
Q 1822 3584 2144 3584 
Q 2531 3584 2781 3431 
Q 3031 3278 3144 2969 
L 3244 3494 
L 3822 3494 
L 2888 -1319 
L 2309 -1319 
L 2669 525 
z
M 891 1338 
Q 891 875 1084 633 
Q 1278 391 1644 391 
Q 2188 391 2572 911 
Q 2956 1431 2956 2175 
Q 2956 2625 2757 2864 
Q 2559 3103 2188 3103 
Q 1916 3103 1684 2976 
Q 1453 2850 1281 2606 
Q 1100 2350 995 2006 
Q 891 1663 891 1338 
z
" transform="scale(0.015625)"/>
       <path id="DejaVuSans-13" d="M 2034 4250 
Q 1547 4250 1301 3770 
Q 1056 3291 1056 2328 
Q 1056 1369 1301 889 
Q 1547 409 2034 409 
Q 2525 409 2770 889 
Q 3016 1369 3016 2328 
Q 3016 3291 2770 3770 
Q 2525 4250 2034 4250 
z
M 2034 4750 
Q 2819 4750 3233 4129 
Q 3647 3509 3647 2328 
Q 3647 1150 3233 529 
Q 2819 -91 2034 -91 
Q 1250 -91 836 529 
Q 422 1150 422 2328 
Q 422 3509 836 4129 
Q 1250 4750 2034 4750 
z
" transform="scale(0.015625)"/>
      </defs>
      <use xlink:href="#DejaVuSans-Oblique-54"/>
      <use xlink:href="#DejaVuSans-13" transform="translate(63.476562 -14.999951) scale(0.7)"/>
     </g>
    </g>
   </g>
   <g id="text_2">
    <g clip-path="url(#p4aee7d10d8)">
     <!-- ${q}_{1}$ -->
     <g transform="translate(28.270628 68.560873) scale(0.11375 -0.11375)">
      <defs>
       <path id="DejaVuSans-14" d="M 794 531 
L 1825 531 
L 1825 4091 
L 703 3866 
L 703 4441 
L 1819 4666 
L 2450 4666 
L 2450 531 
L 3481 531 
L 3481 0 
L 794 0 
L 794 531 
z
" transform="scale(0.015625)"/>
      </defs>
      <use xlink:href="#DejaVuSans-Oblique-54"/>
      <use xlink:href="#DejaVuSans-14" transform="translate(63.476562 -14.999951) scale(0.7)"/>
     </g>
    </g>
   </g>
   <g id="text_3">
    <g clip-path="url(#p4aee7d10d8)">
     <!-- ${q}_{2}$ -->
     <g transform="translate(28.270628 101.008673) scale(0.11375 -0.11375)">
      <defs>
       <path id="DejaVuSans-15" d="M 1228 531 
L 3431 531 
L 3431 0 
L 469 0 
L 469 531 
Q 828 903 1448 1529 
Q 2069 2156 2228 2338 
Q 2531 2678 2651 2914 
Q 2772 3150 2772 3378 
Q 2772 3750 2511 3984 
Q 2250 4219 1831 4219 
Q 1534 4219 1204 4116 
Q 875 4013 500 3803 
L 500 4441 
Q 881 4594 1212 4672 
Q 1544 4750 1819 4750 
Q 2544 4750 2975 4387 
Q 3406 4025 3406 3419 
Q 3406 3131 3298 2873 
Q 3191 2616 2906 2266 
Q 2828 2175 2409 1742 
Q 1991 1309 1228 531 
z
" transform="scale(0.015625)"/>
      </defs>
      <use xlink:href="#DejaVuSans-Oblique-54"/>
      <use xlink:href="#DejaVuSans-15" transform="translate(63.476562 -14.999951) scale(0.7)"/>
     </g>
    </g>
   </g>
   <g id="text_4">
    <g clip-path="url(#p4aee7d10d8)">
     <!-- ${q}_{3}$ -->
     <g transform="translate(28.270628 133.456472) scale(0.11375 -0.11375)">
      <defs>
       <path id="DejaVuSans-16" d="M 2597 2516 
Q 3050 2419 3304 2112 
Q 3559 1806 3559 1356 
Q 3559 666 3084 287 
Q 2609 -91 1734 -91 
Q 1441 -91 1130 -33 
Q 819 25 488 141 
L 488 750 
Q 750 597 1062 519 
Q 1375 441 1716 441 
Q 2309 441 2620 675 
Q 2931 909 2931 1356 
Q 2931 1769 2642 2001 
Q 2353 2234 1838 2234 
L 1294 2234 
L 1294 2753 
L 1863 2753 
Q 2328 2753 2575 2939 
Q 2822 3125 2822 3475 
Q 2822 3834 2567 4026 
Q 2313 4219 1838 4219 
Q 1578 4219 1281 4162 
Q 984 4106 628 3988 
L 628 4550 
Q 988 4650 1302 4700 
Q 1616 4750 1894 4750 
Q 2613 4750 3031 4423 
Q 3450 4097 3450 3541 
Q 3450 3153 3228 2886 
Q 3006 2619 2597 2516 
z
" transform="scale(0.015625)"/>
      </defs>
      <use xlink:href="#DejaVuSans-Oblique-54"/>
      <use xlink:href="#DejaVuSans-16" transform="translate(63.476562 -14.999951) scale(0.7)"/>
     </g>
    </g>
   </g>
   <g id="text_5">
    <g clip-path="url(#p4aee7d10d8)">
     <!-- ${q}_{4}$ -->
     <g transform="translate(28.270628 165.904272) scale(0.11375 -0.11375)">
      <defs>
       <path id="DejaVuSans-17" d="M 2419 4116 
L 825 1625 
L 2419 1625 
L 2419 4116 
z
M 2253 4666 
L 3047 4666 
L 3047 1625 
L 3713 1625 
L 3713 1100 
L 3047 1100 
L 3047 0 
L 2419 0 
L 2419 1100 
L 313 1100 
L 313 1709 
L 2253 4666 
z
" transform="scale(0.015625)"/>
      </defs>
      <use xlink:href="#DejaVuSans-Oblique-54"/>
      <use xlink:href="#DejaVuSans-17" transform="translate(63.476562 -14.999951) scale(0.7)"/>
     </g>
    </g>
   </g>
   <g id="text_6">
    <g clip-path="url(#p4aee7d10d8)">
     <!-- ${q}_{5}$ -->
     <g transform="translate(28.270628 198.352071) scale(0.11375 -0.11375)">
      <defs>
       <path id="DejaVuSans-18" d="M 691 4666 
L 3169 4666 
L 3169 4134 
L 1269 4134 
L 1269 2991 
Q 1406 3038 1543 3061 
Q 1681 3084 1819 3084 
Q 2600 3084 3056 2656 
Q 3513 2228 3513 1497 
Q 3513 744 3044 326 
Q 2575 -91 1722 -91 
Q 1428 -91 1123 -41 
Q 819 9 494 109 
L 494 744 
Q 775 591 1075 516 
Q 1375 441 1709 441 
Q 2250 441 2565 725 
Q 2881 1009 2881 1497 
Q 2881 1984 2565 2268 
Q 2250 2553 1709 2553 
Q 1456 2553 1204 2497 
Q 953 2441 691 2322 
L 691 4666 
z
" transform="scale(0.015625)"/>
      </defs>
      <use xlink:href="#DejaVuSans-Oblique-54"/>
      <use xlink:href="#DejaVuSans-18" transform="translate(63.476562 -14.999951) scale(0.7)"/>
     </g>
    </g>
   </g>
   <g id="text_7">
    <g clip-path="url(#p4aee7d10d8)">
     <!-- ${q}_{6}$ -->
     <g transform="translate(28.270628 230.799871) scale(0.11375 -0.11375)">
      <defs>
       <path id="DejaVuSans-19" d="M 2113 2584 
Q 1688 2584 1439 2293 
Q 1191 2003 1191 1497 
Q 1191 994 1439 701 
Q 1688 409 2113 409 
Q 2538 409 2786 701 
Q 3034 994 3034 1497 
Q 3034 2003 2786 2293 
Q 2538 2584 2113 2584 
z
M 3366 4563 
L 3366 3988 
Q 3128 4100 2886 4159 
Q 2644 4219 2406 4219 
Q 1781 4219 1451 3797 
Q 1122 3375 1075 2522 
Q 1259 2794 1537 2939 
Q 1816 3084 2150 3084 
Q 2853 3084 3261 2657 
Q 3669 2231 3669 1497 
Q 3669 778 3244 343 
Q 2819 -91 2113 -91 
Q 1303 -91 875 529 
Q 447 1150 447 2328 
Q 447 3434 972 4092 
Q 1497 4750 2381 4750 
Q 2619 4750 2861 4703 
Q 3103 4656 3366 4563 
z
" transform="scale(0.015625)"/>
      </defs>
      <use xlink:href="#DejaVuSans-Oblique-54"/>
      <use xlink:href="#DejaVuSans-19" transform="translate(63.476562 -14.999951) scale(0.7)"/>
     </g>
    </g>
   </g>
   <g id="text_8">
    <g clip-path="url(#p4aee7d10d8)">
     <!-- ${q}_{7}$ -->
     <g transform="translate(28.270628 263.247671) scale(0.11375 -0.11375)">
      <defs>
       <path id="DejaVuSans-1a" d="M 525 4666 
L 3525 4666 
L 3525 4397 
L 1831 0 
L 1172 0 
L 2766 4134 
L 525 4134 
L 525 4666 
z
" transform="scale(0.015625)"/>
      </defs>
      <use xlink:href="#DejaVuSans-Oblique-54"/>
      <use xlink:href="#DejaVuSans-1a" transform="translate(63.476562 -14.999951) scale(0.7)"/>
     </g>
    </g>
   </g>
   <g id="text_9">
    <g clip-path="url(#p4aee7d10d8)">
     <!-- X -->
     <g style="fill: #ffffff" transform="translate(94.239299 35.522107) scale(0.091 -0.091)">
      <defs>
       <path id="DejaVuSans-3b" d="M 403 4666 
L 1081 4666 
L 2241 2931 
L 3406 4666 
L 4084 4666 
L 2584 2425 
L 4184 0 
L 3506 0 
L 2194 1984 
L 872 0 
L 191 0 
L 1856 2491 
L 403 4666 
z
" transform="scale(0.015625)"/>
      </defs>
      <use xlink:href="#DejaVuSans-3b"/>
     </g>
    </g>
   </g>
   <g id="text_10">
    <g clip-path="url(#p4aee7d10d8)">
     <!-- X -->
     <g style="fill: #ffffff" transform="translate(94.239299 100.417706) scale(0.091 -0.091)">
      <use xlink:href="#DejaVuSans-3b"/>
     </g>
    </g>
   </g>
   <g id="text_11">
    <g clip-path="url(#p4aee7d10d8)">
     <!-- X -->
     <g style="fill: #ffffff" transform="translate(94.239299 165.313305) scale(0.091 -0.091)">
      <use xlink:href="#DejaVuSans-3b"/>
     </g>
    </g>
   </g>
   <g id="text_12">
    <g clip-path="url(#p4aee7d10d8)">
     <!-- X -->
     <g style="fill: #ffffff" transform="translate(94.239299 230.208904) scale(0.091 -0.091)">
      <use xlink:href="#DejaVuSans-3b"/>
     </g>
    </g>
   </g>
  </g>
 </g>
 <defs>
  <clipPath id="p4aee7d10d8">
   <rect x="7.2" y="7.2" width="111.571597" height="272.561516"/>
  </clipPath>
 </defs>
</svg>
