<?xml version="1.0" encoding="utf-8" standalone="no"?>
<!DOCTYPE svg PUBLIC "-//W3C//DTD SVG 1.1//EN"
  "http://www.w3.org/Graphics/SVG/1.1/DTD/svg11.dtd">
<svg xmlns:xlink="http://www.w3.org/1999/xlink" width="255.762795pt" height="189.618118pt" viewBox="0 0 255.762795 189.618118" xmlns="http://www.w3.org/2000/svg" version="1.1">
 <metadata>
  <rdf:RDF xmlns:dc="http://purl.org/dc/elements/1.1/" xmlns:cc="http://creativecommons.org/ns#" xmlns:rdf="http://www.w3.org/1999/02/22-rdf-syntax-ns#">
   <cc:Work>
    <dc:type rdf:resource="http://purl.org/dc/dcmitype/StillImage"/>
    <dc:date>2026-07-21T00:21:41.511320</dc:date>
    <dc:format>image/svg+xml</dc:format>
    <dc:creator>
     <cc:Agent>
      <dc:title>Matplotlib v3.11.1, https://matplotlib.org/</dc:title>
     </cc:Agent>
    </dc:creator>
   </cc:Work>
  </rdf:RDF>
 </metadata>
 <defs>
  <style type="text/css">*{stroke-linejoin: round; stroke-linecap: butt}</style>
 </defs>
 <g id="figure_1">
  <g id="patch_1">
   <path d="M 0 189.618118 
L 255.762795 189.618118 
L 255.762795 0 
L 0 0 
z
" style="fill: #ffffff"/>
  </g>
  <g id="axes_1">
   <g id="line2d_1">
    <path d="M 47.386438 33.15824 
L 245.318015 33.15824 
" clip-path="url(#p5682109c9d)" style="fill: none; stroke: #000000; stroke-width: 1.4; stroke-linecap: square"/>
   </g>
   <g id="line2d_2">
    <path d="M 47.386438 65.606039 
L 245.318015 65.606039 
" clip-path="url(#p5682109c9d)" style="fill: none; stroke: #000000; stroke-width: 1.4; stroke-linecap: square"/>
   </g>
   <g id="line2d_3">
    <path d="M 47.386438 98.053839 
L 245.318015 98.053839 
" clip-path="url(#p5682109c9d)" style="fill: none; stroke: #000000; stroke-width: 1.4; stroke-linecap: square"/>
   </g>
   <g id="line2d_4">
    <path d="M 47.386438 130.501638 
L 245.318015 130.501638 
" clip-path="url(#p5682109c9d)" style="fill: none; stroke: #000000; stroke-width: 1.4; stroke-linecap: square"/>
   </g>
   <g id="line2d_5">
    <path d="M 47.386438 162.949438 
L 245.318015 162.949438 
" clip-path="url(#p5682109c9d)" style="fill: none; stroke: #000000; stroke-width: 1.4; stroke-linecap: square"/>
   </g>
   <g id="patch_2">
    <path d="M 44.141658 16.93434 
L -767.053332 16.93434 
L -767.053332 211.621137 
L 44.141658 211.621137 
z
" clip-path="url(#p5682109c9d)" style="fill: #ffffff; stroke: #ffffff; stroke-width: 1.05; stroke-linejoin: miter"/>
   </g>
   <g id="line2d_6">
    <path d="M 64.908249 130.501638 
L 64.908249 33.15824 
" clip-path="url(#p5682109c9d)" style="fill: none; stroke: #002d9c; stroke-width: 1.4; stroke-linecap: square"/>
   </g>
   <g id="line2d_7">
    <path d="M 97.356049 130.501638 
L 97.356049 65.606039 
" clip-path="url(#p5682109c9d)" style="fill: none; stroke: #002d9c; stroke-width: 1.4; stroke-linecap: square"/>
   </g>
   <g id="line2d_8">
    <path d="M 129.803848 130.501638 
L 129.803848 98.053839 
" clip-path="url(#p5682109c9d)" style="fill: none; stroke: #002d9c; stroke-width: 1.4; stroke-linecap: square"/>
   </g>
   <g id="line2d_9">
    <path d="M 162.251648 162.949438 
L 162.251648 33.15824 
" clip-path="url(#p5682109c9d)" style="fill: none; stroke: #002d9c; stroke-width: 1.4; stroke-linecap: square"/>
   </g>
   <g id="line2d_10">
    <path d="M 194.699448 162.949438 
L 194.699448 33.15824 
" clip-path="url(#p5682109c9d)" style="fill: none; stroke: #002d9c; stroke-width: 1.4; stroke-linecap: square"/>
   </g>
   <g id="line2d_11">
    <path d="M 227.147247 162.949438 
L 227.147247 65.606039 
" clip-path="url(#p5682109c9d)" style="fill: none; stroke: #002d9c; stroke-width: 1.4; stroke-linecap: square"/>
   </g>
   <g id="patch_3">
    <path d="M 64.908249 36.3219 
C 65.747262 36.3219 66.552024 35.988557 67.145295 35.395285 
C 67.738567 34.802014 68.07191 33.997252 68.07191 33.15824 
C 68.07191 32.319227 67.738567 31.514465 67.145295 30.921194 
C 66.552024 30.327922 65.747262 29.994579 64.908249 29.994579 
C 64.069237 29.994579 63.264475 30.327922 62.671204 30.921194 
C 62.077932 31.514465 61.744589 32.319227 61.744589 33.15824 
C 61.744589 33.997252 62.077932 34.802014 62.671204 35.395285 
C 63.264475 35.988557 64.069237 36.3219 64.908249 36.3219 
z
" clip-path="url(#p5682109c9d)" style="fill: #002d9c; stroke: #002d9c; stroke-width: 1.05; stroke-linejoin: miter"/>
   </g>
   <g id="patch_4">
    <path d="M 64.908249 137.883513 
C 66.865945 137.883513 68.743723 137.105712 70.128023 135.721412 
C 71.512323 134.337112 72.290124 132.459334 72.290124 130.501638 
C 72.290124 128.543942 71.512323 126.666165 70.128023 125.281865 
C 68.743723 123.897565 66.865945 123.119764 64.908249 123.119764 
C 62.950553 123.119764 61.072776 123.897565 59.688476 125.281865 
C 58.304176 126.666165 57.526375 128.543942 57.526375 130.501638 
C 57.526375 132.459334 58.304176 134.337112 59.688476 135.721412 
C 61.072776 137.105712 62.950553 137.883513 64.908249 137.883513 
z
" clip-path="url(#p5682109c9d)" style="fill: #002d9c; stroke: #002d9c; stroke-width: 1.4; stroke-linejoin: miter"/>
   </g>
   <g id="patch_5">
    <path d="M 97.356049 68.7697 
C 98.195061 68.7697 98.999823 68.436356 99.593095 67.843085 
C 100.186366 67.249814 100.519709 66.445052 100.519709 65.606039 
C 100.519709 64.767027 100.186366 63.962265 99.593095 63.368993 
C 98.999823 62.775722 98.195061 62.442379 97.356049 62.442379 
C 96.517036 62.442379 95.712275 62.775722 95.119003 63.368993 
C 94.525732 63.962265 94.192388 64.767027 94.192388 65.606039 
C 94.192388 66.445052 94.525732 67.249814 95.119003 67.843085 
C 95.712275 68.436356 96.517036 68.7697 97.356049 68.7697 
z
" clip-path="url(#p5682109c9d)" style="fill: #002d9c; stroke: #002d9c; stroke-width: 1.05; stroke-linejoin: miter"/>
   </g>
   <g id="patch_6">
    <path d="M 97.356049 137.883513 
C 99.313745 137.883513 101.191522 137.105712 102.575822 135.721412 
C 103.960122 134.337112 104.737923 132.459334 104.737923 130.501638 
C 104.737923 128.543942 103.960122 126.666165 102.575822 125.281865 
C 101.191522 123.897565 99.313745 123.119764 97.356049 123.119764 
C 95.398353 123.119764 93.520576 123.897565 92.136275 125.281865 
C 90.751975 126.666165 89.974174 128.543942 89.974174 130.501638 
C 89.974174 132.459334 90.751975 134.337112 92.136275 135.721412 
C 93.520576 137.105712 95.398353 137.883513 97.356049 137.883513 
z
" clip-path="url(#p5682109c9d)" style="fill: #002d9c; stroke: #002d9c; stroke-width: 1.4; stroke-linejoin: miter"/>
   </g>
   <g id="patch_7">
    <path d="M 129.803848 101.217499 
C 130.642861 101.217499 131.447623 100.884156 132.040894 100.290885 
C 132.634166 99.697613 132.967509 98.892851 132.967509 98.053839 
C 132.967509 97.214826 132.634166 96.410065 132.040894 95.816793 
C 131.447623 95.223522 130.642861 94.890178 129.803848 94.890178 
C 128.964836 94.890178 128.160074 95.223522 127.566803 95.816793 
C 126.973531 96.410065 126.640188 97.214826 126.640188 98.053839 
C 126.640188 98.892851 126.973531 99.697613 127.566803 100.290885 
C 128.160074 100.884156 128.964836 101.217499 129.803848 101.217499 
z
" clip-path="url(#p5682109c9d)" style="fill: #002d9c; stroke: #002d9c; stroke-width: 1.05; stroke-linejoin: miter"/>
   </g>
   <g id="patch_8">
    <path d="M 129.803848 137.883513 
C 131.761544 137.883513 133.639322 137.105712 135.023622 135.721412 
C 136.407922 134.337112 137.185723 132.459334 137.185723 130.501638 
C 137.185723 128.543942 136.407922 126.666165 135.023622 125.281865 
C 133.639322 123.897565 131.761544 123.119764 129.803848 123.119764 
C 127.846152 123.119764 125.968375 123.897565 124.584075 125.281865 
C 123.199775 126.666165 122.421974 128.543942 122.421974 130.501638 
C 122.421974 132.459334 123.199775 134.337112 124.584075 135.721412 
C 125.968375 137.105712 127.846152 137.883513 129.803848 137.883513 
z
" clip-path="url(#p5682109c9d)" style="fill: #002d9c; stroke: #002d9c; stroke-width: 1.4; stroke-linejoin: miter"/>
   </g>
   <g id="patch_9">
    <path d="M 162.251648 36.3219 
C 163.090661 36.3219 163.895422 35.988557 164.488694 35.395285 
C 165.081965 34.802014 165.415308 33.997252 165.415308 33.15824 
C 165.415308 32.319227 165.081965 31.514465 164.488694 30.921194 
C 163.895422 30.327922 163.090661 29.994579 162.251648 29.994579 
C 161.412635 29.994579 160.607874 30.327922 160.014602 30.921194 
C 159.421331 31.514465 159.087988 32.319227 159.087988 33.15824 
C 159.087988 33.997252 159.421331 34.802014 160.014602 35.395285 
C 160.607874 35.988557 161.412635 36.3219 162.251648 36.3219 
z
" clip-path="url(#p5682109c9d)" style="fill: #002d9c; stroke: #002d9c; stroke-width: 1.05; stroke-linejoin: miter"/>
   </g>
   <g id="patch_10">
    <path d="M 162.251648 68.7697 
C 163.090661 68.7697 163.895422 68.436356 164.488694 67.843085 
C 165.081965 67.249814 165.415308 66.445052 165.415308 65.606039 
C 165.415308 64.767027 165.081965 63.962265 164.488694 63.368993 
C 163.895422 62.775722 163.090661 62.442379 162.251648 62.442379 
C 161.412635 62.442379 160.607874 62.775722 160.014602 63.368993 
C 159.421331 63.962265 159.087988 64.767027 159.087988 65.606039 
C 159.087988 66.445052 159.421331 67.249814 160.014602 67.843085 
C 160.607874 68.436356 161.412635 68.7697 162.251648 68.7697 
z
" clip-path="url(#p5682109c9d)" style="fill: #002d9c; stroke: #002d9c; stroke-width: 1.05; stroke-linejoin: miter"/>
   </g>
   <g id="patch_11">
    <path d="M 162.251648 170.331312 
C 164.209344 170.331312 166.087121 169.553511 167.471421 168.169211 
C 168.855722 166.784911 169.633522 164.907134 169.633522 162.949438 
C 169.633522 160.991742 168.855722 159.113965 167.471421 157.729664 
C 166.087121 156.345364 164.209344 155.567564 162.251648 155.567564 
C 160.293952 155.567564 158.416175 156.345364 157.031875 157.729664 
C 155.647574 159.113965 154.869774 160.991742 154.869774 162.949438 
C 154.869774 164.907134 155.647574 166.784911 157.031875 168.169211 
C 158.416175 169.553511 160.293952 170.331312 162.251648 170.331312 
z
" clip-path="url(#p5682109c9d)" style="fill: #002d9c; stroke: #002d9c; stroke-width: 1.4; stroke-linejoin: miter"/>
   </g>
   <g id="patch_12">
    <path d="M 194.699448 36.3219 
C 195.53846 36.3219 196.343222 35.988557 196.936493 35.395285 
C 197.529765 34.802014 197.863108 33.997252 197.863108 33.15824 
C 197.863108 32.319227 197.529765 31.514465 196.936493 30.921194 
C 196.343222 30.327922 195.53846 29.994579 194.699448 29.994579 
C 193.860435 29.994579 193.055673 30.327922 192.462402 30.921194 
C 191.86913 31.514465 191.535787 32.319227 191.535787 33.15824 
C 191.535787 33.997252 191.86913 34.802014 192.462402 35.395285 
C 193.055673 35.988557 193.860435 36.3219 194.699448 36.3219 
z
" clip-path="url(#p5682109c9d)" style="fill: #002d9c; stroke: #002d9c; stroke-width: 1.05; stroke-linejoin: miter"/>
   </g>
   <g id="patch_13">
    <path d="M 194.699448 101.217499 
C 195.53846 101.217499 196.343222 100.884156 196.936493 100.290885 
C 197.529765 99.697613 197.863108 98.892851 197.863108 98.053839 
C 197.863108 97.214826 197.529765 96.410065 196.936493 95.816793 
C 196.343222 95.223522 195.53846 94.890178 194.699448 94.890178 
C 193.860435 94.890178 193.055673 95.223522 192.462402 95.816793 
C 191.86913 96.410065 191.535787 97.214826 191.535787 98.053839 
C 191.535787 98.892851 191.86913 99.697613 192.462402 100.290885 
C 193.055673 100.884156 193.860435 101.217499 194.699448 101.217499 
z
" clip-path="url(#p5682109c9d)" style="fill: #002d9c; stroke: #002d9c; stroke-width: 1.05; stroke-linejoin: miter"/>
   </g>
   <g id="patch_14">
    <path d="M 194.699448 170.331312 
C 196.657144 170.331312 198.534921 169.553511 199.919221 168.169211 
C 201.303521 166.784911 202.081322 164.907134 202.081322 162.949438 
C 202.081322 160.991742 201.303521 159.113965 199.919221 157.729664 
C 198.534921 156.345364 196.657144 155.567564 194.699448 155.567564 
C 192.741752 155.567564 190.863974 156.345364 189.479674 157.729664 
C 188.095374 159.113965 187.317573 160.991742 187.317573 162.949438 
C 187.317573 164.907134 188.095374 166.784911 189.479674 168.169211 
C 190.863974 169.553511 192.741752 170.331312 194.699448 170.331312 
z
" clip-path="url(#p5682109c9d)" style="fill: #002d9c; stroke: #002d9c; stroke-width: 1.4; stroke-linejoin: miter"/>
   </g>
   <g id="patch_15">
    <path d="M 227.147247 68.7697 
C 227.98626 68.7697 228.791021 68.436356 229.384293 67.843085 
C 229.977564 67.249814 230.310908 66.445052 230.310908 65.606039 
C 230.310908 64.767027 229.977564 63.962265 229.384293 63.368993 
C 228.791021 62.775722 227.98626 62.442379 227.147247 62.442379 
C 226.308235 62.442379 225.503473 62.775722 224.910201 63.368993 
C 224.31693 63.962265 223.983587 64.767027 223.983587 65.606039 
C 223.983587 66.445052 224.31693 67.249814 224.910201 67.843085 
C 225.503473 68.436356 226.308235 68.7697 227.147247 68.7697 
z
" clip-path="url(#p5682109c9d)" style="fill: #002d9c; stroke: #002d9c; stroke-width: 1.05; stroke-linejoin: miter"/>
   </g>
   <g id="patch_16">
    <path d="M 227.147247 101.217499 
C 227.98626 101.217499 228.791021 100.884156 229.384293 100.290885 
C 229.977564 99.697613 230.310908 98.892851 230.310908 98.053839 
C 230.310908 97.214826 229.977564 96.410065 229.384293 95.816793 
C 228.791021 95.223522 227.98626 94.890178 227.147247 94.890178 
C 226.308235 94.890178 225.503473 95.223522 224.910201 95.816793 
C 224.31693 96.410065 223.983587 97.214826 223.983587 98.053839 
C 223.983587 98.892851 224.31693 99.697613 224.910201 100.290885 
C 225.503473 100.884156 226.308235 101.217499 227.147247 101.217499 
z
" clip-path="url(#p5682109c9d)" style="fill: #002d9c; stroke: #002d9c; stroke-width: 1.05; stroke-linejoin: miter"/>
   </g>
   <g id="patch_17">
    <path d="M 227.147247 170.331312 
C 229.104943 170.331312 230.98272 169.553511 232.367021 168.169211 
C 233.751321 166.784911 234.529122 164.907134 234.529122 162.949438 
C 234.529122 160.991742 233.751321 159.113965 232.367021 157.729664 
C 230.98272 156.345364 229.104943 155.567564 227.147247 155.567564 
C 225.189551 155.567564 223.311774 156.345364 221.927474 157.729664 
C 220.543174 159.113965 219.765373 160.991742 219.765373 162.949438 
C 219.765373 164.907134 220.543174 166.784911 221.927474 168.169211 
C 223.311774 169.553511 225.189551 170.331312 227.147247 170.331312 
z
" clip-path="url(#p5682109c9d)" style="fill: #002d9c; stroke: #002d9c; stroke-width: 1.4; stroke-linejoin: miter"/>
   </g>
   <g id="line2d_12">
    <path d="M 64.908249 134.719852 
L 64.908249 126.283424 
" clip-path="url(#p5682109c9d)" style="fill: none; stroke: #ffffff; stroke-width: 1.4; stroke-linecap: square"/>
   </g>
   <g id="line2d_13">
    <path d="M 60.690035 130.501638 
L 69.126463 130.501638 
" clip-path="url(#p5682109c9d)" style="fill: none; stroke: #ffffff; stroke-width: 1.4; stroke-linecap: square"/>
   </g>
   <g id="line2d_14">
    <path d="M 97.356049 134.719852 
L 97.356049 126.283424 
" clip-path="url(#p5682109c9d)" style="fill: none; stroke: #ffffff; stroke-width: 1.4; stroke-linecap: square"/>
   </g>
   <g id="line2d_15">
    <path d="M 93.137835 130.501638 
L 101.574263 130.501638 
" clip-path="url(#p5682109c9d)" style="fill: none; stroke: #ffffff; stroke-width: 1.4; stroke-linecap: square"/>
   </g>
   <g id="line2d_16">
    <path d="M 129.803848 134.719852 
L 129.803848 126.283424 
" clip-path="url(#p5682109c9d)" style="fill: none; stroke: #ffffff; stroke-width: 1.4; stroke-linecap: square"/>
   </g>
   <g id="line2d_17">
    <path d="M 125.585634 130.501638 
L 134.022062 130.501638 
" clip-path="url(#p5682109c9d)" style="fill: none; stroke: #ffffff; stroke-width: 1.4; stroke-linecap: square"/>
   </g>
   <g id="line2d_18">
    <path d="M 162.251648 167.167652 
L 162.251648 158.731224 
" clip-path="url(#p5682109c9d)" style="fill: none; stroke: #ffffff; stroke-width: 1.4; stroke-linecap: square"/>
   </g>
   <g id="line2d_19">
    <path d="M 158.033434 162.949438 
L 166.469862 162.949438 
" clip-path="url(#p5682109c9d)" style="fill: none; stroke: #ffffff; stroke-width: 1.4; stroke-linecap: square"/>
   </g>
   <g id="line2d_20">
    <path d="M 194.699448 167.167652 
L 194.699448 158.731224 
" clip-path="url(#p5682109c9d)" style="fill: none; stroke: #ffffff; stroke-width: 1.4; stroke-linecap: square"/>
   </g>
   <g id="line2d_21">
    <path d="M 190.481234 162.949438 
L 198.917662 162.949438 
" clip-path="url(#p5682109c9d)" style="fill: none; stroke: #ffffff; stroke-width: 1.4; stroke-linecap: square"/>
   </g>
   <g id="line2d_22">
    <path d="M 227.147247 167.167652 
L 227.147247 158.731224 
" clip-path="url(#p5682109c9d)" style="fill: none; stroke: #ffffff; stroke-width: 1.4; stroke-linecap: square"/>
   </g>
   <g id="line2d_23">
    <path d="M 222.929033 162.949438 
L 231.365461 162.949438 
" clip-path="url(#p5682109c9d)" style="fill: none; stroke: #ffffff; stroke-width: 1.4; stroke-linecap: square"/>
   </g>
   <g id="text_1">
    <g clip-path="url(#p5682109c9d)">
     <!-- ${q}_{0}$ -->
     <g transform="translate(28.270628 36.113074) scale(0.11375 -0.11375)">
      <defs>
       <path id="DejaVuSans-Oblique-54" d="M 2669 525 
Q 2438 222 2123 65 
Q 1809 -91 1428 -91 
Q 897 -91 595 267 
Q 294 625 294 1253 
Q 294 1759 480 2231 
Q 666 2703 1013 3078 
Q 1238 3322 1530 3453 
Q 1822 3584 2144 3584 
Q 2531 3584 2781 3431 
Q 3031 3278 3144 2969 
L 3244 3494 
L 3822 3494 
L 2888 -1319 
L 2309 -1319 
L 2669 525 
z
M 891 1338 
Q 891 875 1084 633 
Q 1278 391 1644 391 
Q 2188 391 2572 911 
Q 2956 1431 2956 2175 
Q 2956 2625 2757 2864 
Q 2559 3103 2188 3103 
Q 1916 3103 1684 2976 
Q 1453 2850 1281 2606 
Q 1100 2350 995 2006 
Q 891 1663 891 1338 
z
" transform="scale(0.015625)"/>
       <path id="DejaVuSans-13" d="M 2034 4250 
Q 1547 4250 1301 3770 
Q 1056 3291 1056 2328 
Q 1056 1369 1301 889 
Q 1547 409 2034 409 
Q 2525 409 2770 889 
Q 3016 1369 3016 2328 
Q 3016 3291 2770 3770 
Q 2525 4250 2034 4250 
z
M 2034 4750 
Q 2819 4750 3233 4129 
Q 3647 3509 3647 2328 
Q 3647 1150 3233 529 
Q 2819 -91 2034 -91 
Q 1250 -91 836 529 
Q 422 1150 422 2328 
Q 422 3509 836 4129 
Q 1250 4750 2034 4750 
z
" transform="scale(0.015625)"/>
      </defs>
      <use xlink:href="#DejaVuSans-Oblique-54"/>
      <use xlink:href="#DejaVuSans-13" transform="translate(63.476562 -14.999951) scale(0.7)"/>
     </g>
    </g>
   </g>
   <g id="text_2">
    <g clip-path="url(#p5682109c9d)">
     <!-- ${q}_{1}$ -->
     <g transform="translate(28.270628 68.560873) scale(0.11375 -0.11375)">
      <defs>
       <path id="DejaVuSans-14" d="M 794 531 
L 1825 531 
L 1825 4091 
L 703 3866 
L 703 4441 
L 1819 4666 
L 2450 4666 
L 2450 531 
L 3481 531 
L 3481 0 
L 794 0 
L 794 531 
z
" transform="scale(0.015625)"/>
      </defs>
      <use xlink:href="#DejaVuSans-Oblique-54"/>
      <use xlink:href="#DejaVuSans-14" transform="translate(63.476562 -14.999951) scale(0.7)"/>
     </g>
    </g>
   </g>
   <g id="text_3">
    <g clip-path="url(#p5682109c9d)">
     <!-- ${q}_{2}$ -->
     <g transform="translate(28.270628 101.008673) scale(0.11375 -0.11375)">
      <defs>
       <path id="DejaVuSans-15" d="M 1228 531 
L 3431 531 
L 3431 0 
L 469 0 
L 469 531 
Q 828 903 1448 1529 
Q 2069 2156 2228 2338 
Q 2531 2678 2651 2914 
Q 2772 3150 2772 3378 
Q 2772 3750 2511 3984 
Q 2250 4219 1831 4219 
Q 1534 4219 1204 4116 
Q 875 4013 500 3803 
L 500 4441 
Q 881 4594 1212 4672 
Q 1544 4750 1819 4750 
Q 2544 4750 2975 4387 
Q 3406 4025 3406 3419 
Q 3406 3131 3298 2873 
Q 3191 2616 2906 2266 
Q 2828 2175 2409 1742 
Q 1991 1309 1228 531 
z
" transform="scale(0.015625)"/>
      </defs>
      <use xlink:href="#DejaVuSans-Oblique-54"/>
      <use xlink:href="#DejaVuSans-15" transform="translate(63.476562 -14.999951) scale(0.7)"/>
     </g>
    </g>
   </g>
   <g id="text_4">
    <g clip-path="url(#p5682109c9d)">
     <!-- ${q}_{3}$ -->
     <g transform="translate(28.270628 133.456472) scale(0.11375 -0.11375)">
      <defs>
       <path id="DejaVuSans-16" d="M 2597 2516 
Q 3050 2419 3304 2112 
Q 3559 1806 3559 1356 
Q 3559 666 3084 287 
Q 2609 -91 1734 -91 
Q 1441 -91 1130 -33 
Q 819 25 488 141 
L 488 750 
Q 750 597 1062 519 
Q 1375 441 1716 441 
Q 2309 441 2620 675 
Q 2931 909 2931 1356 
Q 2931 1769 2642 2001 
Q 2353 2234 1838 2234 
L 1294 2234 
L 1294 2753 
L 1863 2753 
Q 2328 2753 2575 2939 
Q 2822 3125 2822 3475 
Q 2822 3834 2567 4026 
Q 2313 4219 1838 4219 
Q 1578 4219 1281 4162 
Q 984 4106 628 3988 
L 628 4550 
Q 988 4650 1302 4700 
Q 1616 4750 1894 4750 
Q 2613 4750 3031 4423 
Q 3450 4097 3450 3541 
Q 3450 3153 3228 2886 
Q 3006 2619 2597 2516 
z
" transform="scale(0.015625)"/>
      </defs>
      <use xlink:href="#DejaVuSans-Oblique-54"/>
      <use xlink:href="#DejaVuSans-16" transform="translate(63.476562 -14.999951) scale(0.7)"/>
     </g>
    </g>
   </g>
   <g id="text_5">
    <g clip-path="url(#p5682109c9d)">
     <!-- ${q}_{4}$ -->
     <g transform="translate(28.270628 165.904272) scale(0.11375 -0.11375)">
      <defs>
       <path id="DejaVuSans-17" d="M 2419 4116 
L 825 1625 
L 2419 1625 
L 2419 4116 
z
M 2253 4666 
L 3047 4666 
L 3047 1625 
L 3713 1625 
L 3713 1100 
L 3047 1100 
L 3047 0 
L 2419 0 
L 2419 1100 
L 313 1100 
L 313 1709 
L 2253 4666 
z
" transform="scale(0.015625)"/>
      </defs>
      <use xlink:href="#DejaVuSans-Oblique-54"/>
      <use xlink:href="#DejaVuSans-17" transform="translate(63.476562 -14.999951) scale(0.7)"/>
     </g>
    </g>
   </g>
  </g>
 </g>
 <defs>
  <clipPath id="p5682109c9d">
   <rect x="7.2" y="7.2" width="241.362795" height="175.218118"/>
  </clipPath>
 </defs>
</svg>
