<?xml version="1.0" encoding="utf-8" standalone="no"?>
<!DOCTYPE svg PUBLIC "-//W3C//DTD SVG 1.1//EN"
  "http://www.w3.org/Graphics/SVG/1.1/DTD/svg11.dtd">
<svg xmlns:xlink="http://www.w3.org/1999/xlink" width="255.762795pt" height="189.618118pt" viewBox="0 0 255.762795 189.618118" xmlns="http://www.w3.org/2000/svg" version="1.1">
 <metadata>
  <rdf:RDF xmlns:dc="http://purl.org/dc/elements/1.1/" xmlns:cc="http://creativecommons.org/ns#" xmlns:rdf="http://www.w3.org/1999/02/22-rdf-syntax-ns#">
   <cc:Work>
    <dc:type rdf:resource="http://purl.org/dc/dcmitype/StillImage"/>
    <dc:date>2026-07-21T00:21:39.983202</dc:date>
    <dc:format>image/svg+xml</dc:format>
    <dc:creator>
     <cc:Agent>
      <dc:title>Matplotlib v3.11.1, https://matplotlib.org/</dc:title>
     </cc:Agent>
    </dc:creator>
   </cc:Work>
  </rdf:RDF>
 </metadata>
 <defs>
  <style type="text/css">*{stroke-linejoin: round; stroke-linecap: butt}</style>
 </defs>
 <g id="figure_1">
  <g id="patch_1">
   <path d="M 0 189.618118 
L 255.762795 189.618118 
L 255.762795 0 
L 0 0 
z
" style="fill: #ffffff"/>
  </g>
  <g id="axes_1">
   <g id="line2d_1">
    <path d="M 47.386438 33.15824 
L 245.318015 33.15824 
" clip-path="url(#p33f66cf955)" style="fill: none; stroke: #000000; stroke-width: 1.4; stroke-linecap: square"/>
   </g>
   <g id="line2d_2">
    <path d="M 47.386438 65.606039 
L 245.318015 65.606039 
" clip-path="url(#p33f66cf955)" style="fill: none; stroke: #000000; stroke-width: 1.4; stroke-linecap: square"/>
   </g>
   <g id="line2d_3">
    <path d="M 47.386438 98.053839 
L 245.318015 98.053839 
" clip-path="url(#p33f66cf955)" style="fill: none; stroke: #000000; stroke-width: 1.4; stroke-linecap: square"/>
   </g>
   <g id="line2d_4">
    <path d="M 47.386438 130.501638 
L 245.318015 130.501638 
" clip-path="url(#p33f66cf955)" style="fill: none; stroke: #000000; stroke-width: 1.4; stroke-linecap: square"/>
   </g>
   <g id="line2d_5">
    <path d="M 47.386438 162.949438 
L 245.318015 162.949438 
" clip-path="url(#p33f66cf955)" style="fill: none; stroke: #000000; stroke-width: 1.4; stroke-linecap: square"/>
   </g>
   <g id="patch_2">
    <path d="M 44.141658 16.93434 
L -767.053332 16.93434 
L -767.053332 211.621137 
L 44.141658 211.621137 
z
" clip-path="url(#p33f66cf955)" style="fill: #ffffff; stroke: #ffffff; stroke-width: 1.05; stroke-linejoin: miter"/>
   </g>
   <g id="line2d_6">
    <path d="M 64.908249 98.053839 
L 64.908249 33.15824 
" clip-path="url(#p33f66cf955)" style="fill: none; stroke: #002d9c; stroke-width: 1.4; stroke-linecap: square"/>
   </g>
   <g id="line2d_7">
    <path d="M 97.356049 130.501638 
L 97.356049 33.15824 
" clip-path="url(#p33f66cf955)" style="fill: none; stroke: #002d9c; stroke-width: 1.4; stroke-linecap: square"/>
   </g>
   <g id="line2d_8">
    <path d="M 129.803848 130.501638 
L 129.803848 65.606039 
" clip-path="url(#p33f66cf955)" style="fill: none; stroke: #002d9c; stroke-width: 1.4; stroke-linecap: square"/>
   </g>
   <g id="line2d_9">
    <path d="M 194.699448 162.949438 
L 194.699448 33.15824 
" clip-path="url(#p33f66cf955)" style="fill: none; stroke: #002d9c; stroke-width: 1.4; stroke-linecap: square"/>
   </g>
   <g id="patch_3">
    <path d="M 64.908249 36.3219 
C 65.747262 36.3219 66.552024 35.988557 67.145295 35.395285 
C 67.738567 34.802014 68.07191 33.997252 68.07191 33.15824 
C 68.07191 32.319227 67.738567 31.514465 67.145295 30.921194 
C 66.552024 30.327922 65.747262 29.994579 64.908249 29.994579 
C 64.069237 29.994579 63.264475 30.327922 62.671204 30.921194 
C 62.077932 31.514465 61.744589 32.319227 61.744589 33.15824 
C 61.744589 33.997252 62.077932 34.802014 62.671204 35.395285 
C 63.264475 35.988557 64.069237 36.3219 64.908249 36.3219 
z
" clip-path="url(#p33f66cf955)" style="fill: #002d9c; stroke: #002d9c; stroke-width: 1.05; stroke-linejoin: miter"/>
   </g>
   <g id="patch_4">
    <path d="M 64.908249 68.7697 
C 65.747262 68.7697 66.552024 68.436356 67.145295 67.843085 
C 67.738567 67.249814 68.07191 66.445052 68.07191 65.606039 
C 68.07191 64.767027 67.738567 63.962265 67.145295 63.368993 
C 66.552024 62.775722 65.747262 62.442379 64.908249 62.442379 
C 64.069237 62.442379 63.264475 62.775722 62.671204 63.368993 
C 62.077932 63.962265 61.744589 64.767027 61.744589 65.606039 
C 61.744589 66.445052 62.077932 67.249814 62.671204 67.843085 
C 63.264475 68.436356 64.069237 68.7697 64.908249 68.7697 
z
" clip-path="url(#p33f66cf955)" style="fill: #002d9c; stroke: #002d9c; stroke-width: 1.05; stroke-linejoin: miter"/>
   </g>
   <g id="patch_5">
    <path d="M 64.908249 105.435713 
C 66.865945 105.435713 68.743723 104.657912 70.128023 103.273612 
C 71.512323 101.889312 72.290124 100.011535 72.290124 98.053839 
C 72.290124 96.096143 71.512323 94.218365 70.128023 92.834065 
C 68.743723 91.449765 66.865945 90.671964 64.908249 90.671964 
C 62.950553 90.671964 61.072776 91.449765 59.688476 92.834065 
C 58.304176 94.218365 57.526375 96.096143 57.526375 98.053839 
C 57.526375 100.011535 58.304176 101.889312 59.688476 103.273612 
C 61.072776 104.657912 62.950553 105.435713 64.908249 105.435713 
z
" clip-path="url(#p33f66cf955)" style="fill: #002d9c; stroke: #002d9c; stroke-width: 1.4; stroke-linejoin: miter"/>
   </g>
   <g id="patch_6">
    <path d="M 97.356049 36.3219 
C 98.195061 36.3219 98.999823 35.988557 99.593095 35.395285 
C 100.186366 34.802014 100.519709 33.997252 100.519709 33.15824 
C 100.519709 32.319227 100.186366 31.514465 99.593095 30.921194 
C 98.999823 30.327922 98.195061 29.994579 97.356049 29.994579 
C 96.517036 29.994579 95.712275 30.327922 95.119003 30.921194 
C 94.525732 31.514465 94.192388 32.319227 94.192388 33.15824 
C 94.192388 33.997252 94.525732 34.802014 95.119003 35.395285 
C 95.712275 35.988557 96.517036 36.3219 97.356049 36.3219 
z
" clip-path="url(#p33f66cf955)" style="fill: #002d9c; stroke: #002d9c; stroke-width: 1.05; stroke-linejoin: miter"/>
   </g>
   <g id="patch_7">
    <path d="M 97.356049 137.883513 
C 99.313745 137.883513 101.191522 137.105712 102.575822 135.721412 
C 103.960122 134.337112 104.737923 132.459334 104.737923 130.501638 
C 104.737923 128.543942 103.960122 126.666165 102.575822 125.281865 
C 101.191522 123.897565 99.313745 123.119764 97.356049 123.119764 
C 95.398353 123.119764 93.520576 123.897565 92.136275 125.281865 
C 90.751975 126.666165 89.974174 128.543942 89.974174 130.501638 
C 89.974174 132.459334 90.751975 134.337112 92.136275 135.721412 
C 93.520576 137.105712 95.398353 137.883513 97.356049 137.883513 
z
" clip-path="url(#p33f66cf955)" style="fill: #002d9c; stroke: #002d9c; stroke-width: 1.4; stroke-linejoin: miter"/>
   </g>
   <g id="patch_8">
    <path d="M 129.803848 68.7697 
C 130.642861 68.7697 131.447623 68.436356 132.040894 67.843085 
C 132.634166 67.249814 132.967509 66.445052 132.967509 65.606039 
C 132.967509 64.767027 132.634166 63.962265 132.040894 63.368993 
C 131.447623 62.775722 130.642861 62.442379 129.803848 62.442379 
C 128.964836 62.442379 128.160074 62.775722 127.566803 63.368993 
C 126.973531 63.962265 126.640188 64.767027 126.640188 65.606039 
C 126.640188 66.445052 126.973531 67.249814 127.566803 67.843085 
C 128.160074 68.436356 128.964836 68.7697 129.803848 68.7697 
z
" clip-path="url(#p33f66cf955)" style="fill: #002d9c; stroke: #002d9c; stroke-width: 1.05; stroke-linejoin: miter"/>
   </g>
   <g id="patch_9">
    <path d="M 129.803848 137.883513 
C 131.761544 137.883513 133.639322 137.105712 135.023622 135.721412 
C 136.407922 134.337112 137.185723 132.459334 137.185723 130.501638 
C 137.185723 128.543942 136.407922 126.666165 135.023622 125.281865 
C 133.639322 123.897565 131.761544 123.119764 129.803848 123.119764 
C 127.846152 123.119764 125.968375 123.897565 124.584075 125.281865 
C 123.199775 126.666165 122.421974 128.543942 122.421974 130.501638 
C 122.421974 132.459334 123.199775 134.337112 124.584075 135.721412 
C 125.968375 137.105712 127.846152 137.883513 129.803848 137.883513 
z
" clip-path="url(#p33f66cf955)" style="fill: #002d9c; stroke: #002d9c; stroke-width: 1.4; stroke-linejoin: miter"/>
   </g>
   <g id="patch_10">
    <path d="M 119.258314 43.703775 
L 140.349383 43.703775 
L 140.349383 22.612705 
L 119.258314 22.612705 
z
" clip-path="url(#p33f66cf955)" style="fill: #002d9c; stroke: #002d9c; stroke-width: 1.05; stroke-linejoin: miter"/>
   </g>
   <g id="patch_11">
    <path d="M 151.706113 76.151574 
L 172.797183 76.151574 
L 172.797183 55.060504 
L 151.706113 55.060504 
z
" clip-path="url(#p33f66cf955)" style="fill: #002d9c; stroke: #002d9c; stroke-width: 1.05; stroke-linejoin: miter"/>
   </g>
   <g id="patch_12">
    <path d="M 194.699448 36.3219 
C 195.53846 36.3219 196.343222 35.988557 196.936493 35.395285 
C 197.529765 34.802014 197.863108 33.997252 197.863108 33.15824 
C 197.863108 32.319227 197.529765 31.514465 196.936493 30.921194 
C 196.343222 30.327922 195.53846 29.994579 194.699448 29.994579 
C 193.860435 29.994579 193.055673 30.327922 192.462402 30.921194 
C 191.86913 31.514465 191.535787 32.319227 191.535787 33.15824 
C 191.535787 33.997252 191.86913 34.802014 192.462402 35.395285 
C 193.055673 35.988557 193.860435 36.3219 194.699448 36.3219 
z
" clip-path="url(#p33f66cf955)" style="fill: #002d9c; stroke: #002d9c; stroke-width: 1.05; stroke-linejoin: miter"/>
   </g>
   <g id="patch_13">
    <path d="M 194.699448 68.7697 
C 195.53846 68.7697 196.343222 68.436356 196.936493 67.843085 
C 197.529765 67.249814 197.863108 66.445052 197.863108 65.606039 
C 197.863108 64.767027 197.529765 63.962265 196.936493 63.368993 
C 196.343222 62.775722 195.53846 62.442379 194.699448 62.442379 
C 193.860435 62.442379 193.055673 62.775722 192.462402 63.368993 
C 191.86913 63.962265 191.535787 64.767027 191.535787 65.606039 
C 191.535787 66.445052 191.86913 67.249814 192.462402 67.843085 
C 193.055673 68.436356 193.860435 68.7697 194.699448 68.7697 
z
" clip-path="url(#p33f66cf955)" style="fill: #002d9c; stroke: #002d9c; stroke-width: 1.05; stroke-linejoin: miter"/>
   </g>
   <g id="patch_14">
    <path d="M 194.699448 170.331312 
C 196.657144 170.331312 198.534921 169.553511 199.919221 168.169211 
C 201.303521 166.784911 202.081322 164.907134 202.081322 162.949438 
C 202.081322 160.991742 201.303521 159.113965 199.919221 157.729664 
C 198.534921 156.345364 196.657144 155.567564 194.699448 155.567564 
C 192.741752 155.567564 190.863974 156.345364 189.479674 157.729664 
C 188.095374 159.113965 187.317573 160.991742 187.317573 162.949438 
C 187.317573 164.907134 188.095374 166.784911 189.479674 168.169211 
C 190.863974 169.553511 192.741752 170.331312 194.699448 170.331312 
z
" clip-path="url(#p33f66cf955)" style="fill: #002d9c; stroke: #002d9c; stroke-width: 1.4; stroke-linejoin: miter"/>
   </g>
   <g id="patch_15">
    <path d="M 216.601712 76.151574 
L 237.692782 76.151574 
L 237.692782 55.060504 
L 216.601712 55.060504 
z
" clip-path="url(#p33f66cf955)" style="fill: #002d9c; stroke: #002d9c; stroke-width: 1.05; stroke-linejoin: miter"/>
   </g>
   <g id="patch_16">
    <path d="M 216.601712 43.703775 
L 237.692782 43.703775 
L 237.692782 22.612705 
L 216.601712 22.612705 
z
" clip-path="url(#p33f66cf955)" style="fill: #002d9c; stroke: #002d9c; stroke-width: 1.05; stroke-linejoin: miter"/>
   </g>
   <g id="line2d_10">
    <path d="M 64.908249 102.272053 
L 64.908249 93.835625 
" clip-path="url(#p33f66cf955)" style="fill: none; stroke: #ffffff; stroke-width: 1.4; stroke-linecap: square"/>
   </g>
   <g id="line2d_11">
    <path d="M 60.690035 98.053839 
L 69.126463 98.053839 
" clip-path="url(#p33f66cf955)" style="fill: none; stroke: #ffffff; stroke-width: 1.4; stroke-linecap: square"/>
   </g>
   <g id="line2d_12">
    <path d="M 97.356049 134.719852 
L 97.356049 126.283424 
" clip-path="url(#p33f66cf955)" style="fill: none; stroke: #ffffff; stroke-width: 1.4; stroke-linecap: square"/>
   </g>
   <g id="line2d_13">
    <path d="M 93.137835 130.501638 
L 101.574263 130.501638 
" clip-path="url(#p33f66cf955)" style="fill: none; stroke: #ffffff; stroke-width: 1.4; stroke-linecap: square"/>
   </g>
   <g id="line2d_14">
    <path d="M 129.803848 134.719852 
L 129.803848 126.283424 
" clip-path="url(#p33f66cf955)" style="fill: none; stroke: #ffffff; stroke-width: 1.4; stroke-linecap: square"/>
   </g>
   <g id="line2d_15">
    <path d="M 125.585634 130.501638 
L 134.022062 130.501638 
" clip-path="url(#p33f66cf955)" style="fill: none; stroke: #ffffff; stroke-width: 1.4; stroke-linecap: square"/>
   </g>
   <g id="line2d_16">
    <path d="M 194.699448 167.167652 
L 194.699448 158.731224 
" clip-path="url(#p33f66cf955)" style="fill: none; stroke: #ffffff; stroke-width: 1.4; stroke-linecap: square"/>
   </g>
   <g id="line2d_17">
    <path d="M 190.481234 162.949438 
L 198.917662 162.949438 
" clip-path="url(#p33f66cf955)" style="fill: none; stroke: #ffffff; stroke-width: 1.4; stroke-linecap: square"/>
   </g>
   <g id="text_1">
    <g clip-path="url(#p33f66cf955)">
     <!-- ${q}_{0}$ -->
     <g transform="translate(28.270628 36.113074) scale(0.11375 -0.11375)">
      <defs>
       <path id="DejaVuSans-Oblique-54" d="M 2669 525 
Q 2438 222 2123 65 
Q 1809 -91 1428 -91 
Q 897 -91 595 267 
Q 294 625 294 1253 
Q 294 1759 480 2231 
Q 666 2703 1013 3078 
Q 1238 3322 1530 3453 
Q 1822 3584 2144 3584 
Q 2531 3584 2781 3431 
Q 3031 3278 3144 2969 
L 3244 3494 
L 3822 3494 
L 2888 -1319 
L 2309 -1319 
L 2669 525 
z
M 891 1338 
Q 891 875 1084 633 
Q 1278 391 1644 391 
Q 2188 391 2572 911 
Q 2956 1431 2956 2175 
Q 2956 2625 2757 2864 
Q 2559 3103 2188 3103 
Q 1916 3103 1684 2976 
Q 1453 2850 1281 2606 
Q 1100 2350 995 2006 
Q 891 1663 891 1338 
z
" transform="scale(0.015625)"/>
       <path id="DejaVuSans-13" d="M 2034 4250 
Q 1547 4250 1301 3770 
Q 1056 3291 1056 2328 
Q 1056 1369 1301 889 
Q 1547 409 2034 409 
Q 2525 409 2770 889 
Q 3016 1369 3016 2328 
Q 3016 3291 2770 3770 
Q 2525 4250 2034 4250 
z
M 2034 4750 
Q 2819 4750 3233 4129 
Q 3647 3509 3647 2328 
Q 3647 1150 3233 529 
Q 2819 -91 2034 -91 
Q 1250 -91 836 529 
Q 422 1150 422 2328 
Q 422 3509 836 4129 
Q 1250 4750 2034 4750 
z
" transform="scale(0.015625)"/>
      </defs>
      <use xlink:href="#DejaVuSans-Oblique-54"/>
      <use xlink:href="#DejaVuSans-13" transform="translate(63.476562 -14.999951) scale(0.7)"/>
     </g>
    </g>
   </g>
   <g id="text_2">
    <g clip-path="url(#p33f66cf955)">
     <!-- ${q}_{1}$ -->
     <g transform="translate(28.270628 68.560873) scale(0.11375 -0.11375)">
      <defs>
       <path id="DejaVuSans-14" d="M 794 531 
L 1825 531 
L 1825 4091 
L 703 3866 
L 703 4441 
L 1819 4666 
L 2450 4666 
L 2450 531 
L 3481 531 
L 3481 0 
L 794 0 
L 794 531 
z
" transform="scale(0.015625)"/>
      </defs>
      <use xlink:href="#DejaVuSans-Oblique-54"/>
      <use xlink:href="#DejaVuSans-14" transform="translate(63.476562 -14.999951) scale(0.7)"/>
     </g>
    </g>
   </g>
   <g id="text_3">
    <g clip-path="url(#p33f66cf955)">
     <!-- ${q}_{2}$ -->
     <g transform="translate(28.270628 101.008673) scale(0.11375 -0.11375)">
      <defs>
       <path id="DejaVuSans-15" d="M 1228 531 
L 3431 531 
L 3431 0 
L 469 0 
L 469 531 
Q 828 903 1448 1529 
Q 2069 2156 2228 2338 
Q 2531 2678 2651 2914 
Q 2772 3150 2772 3378 
Q 2772 3750 2511 3984 
Q 2250 4219 1831 4219 
Q 1534 4219 1204 4116 
Q 875 4013 500 3803 
L 500 4441 
Q 881 4594 1212 4672 
Q 1544 4750 1819 4750 
Q 2544 4750 2975 4387 
Q 3406 4025 3406 3419 
Q 3406 3131 3298 2873 
Q 3191 2616 2906 2266 
Q 2828 2175 2409 1742 
Q 1991 1309 1228 531 
z
" transform="scale(0.015625)"/>
      </defs>
      <use xlink:href="#DejaVuSans-Oblique-54"/>
      <use xlink:href="#DejaVuSans-15" transform="translate(63.476562 -14.999951) scale(0.7)"/>
     </g>
    </g>
   </g>
   <g id="text_4">
    <g clip-path="url(#p33f66cf955)">
     <!-- ${q}_{3}$ -->
     <g transform="translate(28.270628 133.456472) scale(0.11375 -0.11375)">
      <defs>
       <path id="DejaVuSans-16" d="M 2597 2516 
Q 3050 2419 3304 2112 
Q 3559 1806 3559 1356 
Q 3559 666 3084 287 
Q 2609 -91 1734 -91 
Q 1441 -91 1130 -33 
Q 819 25 488 141 
L 488 750 
Q 750 597 1062 519 
Q 1375 441 1716 441 
Q 2309 441 2620 675 
Q 2931 909 2931 1356 
Q 2931 1769 2642 2001 
Q 2353 2234 1838 2234 
L 1294 2234 
L 1294 2753 
L 1863 2753 
Q 2328 2753 2575 2939 
Q 2822 3125 2822 3475 
Q 2822 3834 2567 4026 
Q 2313 4219 1838 4219 
Q 1578 4219 1281 4162 
Q 984 4106 628 3988 
L 628 4550 
Q 988 4650 1302 4700 
Q 1616 4750 1894 4750 
Q 2613 4750 3031 4423 
Q 3450 4097 3450 3541 
Q 3450 3153 3228 2886 
Q 3006 2619 2597 2516 
z
" transform="scale(0.015625)"/>
      </defs>
      <use xlink:href="#DejaVuSans-Oblique-54"/>
      <use xlink:href="#DejaVuSans-16" transform="translate(63.476562 -14.999951) scale(0.7)"/>
     </g>
    </g>
   </g>
   <g id="text_5">
    <g clip-path="url(#p33f66cf955)">
     <!-- ${q}_{4}$ -->
     <g transform="translate(28.270628 165.904272) scale(0.11375 -0.11375)">
      <defs>
       <path id="DejaVuSans-17" d="M 2419 4116 
L 825 1625 
L 2419 1625 
L 2419 4116 
z
M 2253 4666 
L 3047 4666 
L 3047 1625 
L 3713 1625 
L 3713 1100 
L 3047 1100 
L 3047 0 
L 2419 0 
L 2419 1100 
L 313 1100 
L 313 1709 
L 2253 4666 
z
" transform="scale(0.015625)"/>
      </defs>
      <use xlink:href="#DejaVuSans-Oblique-54"/>
      <use xlink:href="#DejaVuSans-17" transform="translate(63.476562 -14.999951) scale(0.7)"/>
     </g>
    </g>
   </g>
   <g id="text_6">
    <g clip-path="url(#p33f66cf955)">
     <!-- X -->
     <g style="fill: #ffffff" transform="translate(126.687098 35.522107) scale(0.091 -0.091)">
      <defs>
       <path id="DejaVuSans-3b" d="M 403 4666 
L 1081 4666 
L 2241 2931 
L 3406 4666 
L 4084 4666 
L 2584 2425 
L 4184 0 
L 3506 0 
L 2194 1984 
L 872 0 
L 191 0 
L 1856 2491 
L 403 4666 
z
" transform="scale(0.015625)"/>
      </defs>
      <use xlink:href="#DejaVuSans-3b"/>
     </g>
    </g>
   </g>
   <g id="text_7">
    <g clip-path="url(#p33f66cf955)">
     <!-- X -->
     <g style="fill: #ffffff" transform="translate(159.134898 67.969906) scale(0.091 -0.091)">
      <use xlink:href="#DejaVuSans-3b"/>
     </g>
    </g>
   </g>
   <g id="text_8">
    <g clip-path="url(#p33f66cf955)">
     <!-- X -->
     <g style="fill: #ffffff" transform="translate(224.030497 67.969906) scale(0.091 -0.091)">
      <use xlink:href="#DejaVuSans-3b"/>
     </g>
    </g>
   </g>
   <g id="text_9">
    <g clip-path="url(#p33f66cf955)">
     <!-- X -->
     <g style="fill: #ffffff" transform="translate(224.030497 35.522107) scale(0.091 -0.091)">
      <use xlink:href="#DejaVuSans-3b"/>
     </g>
    </g>
   </g>
  </g>
 </g>
 <defs>
  <clipPath id="p33f66cf955">
   <rect x="7.2" y="7.2" width="241.362795" height="175.218118"/>
  </clipPath>
 </defs>
</svg>
